<svg class="bootstrap" width="28" height="30" viewBox="0 0 28 30" fill="none" xmlns="http://www.w3.org/2000/svg">
<path d="M18.2687 18.3322C18.2687 21.1027 15.7863 21.0387 15.5238 21.0387H10.4681V15.7021H15.5238C18.1838 15.7021 18.2687 17.7861 18.2687 18.3322ZM15.1344 13.5548C15.1762 13.5548 17.5369 13.6202 17.5369 11.1828C17.5369 10.1689 17.3175 8.83951 15.1344 8.83951H10.4681V13.5548H15.1344ZM28 4.92315V24.4338C27.9964 25.7263 27.5035 26.9648 26.6291 27.8788C25.7547 28.7928 24.5697 29.3079 23.3331 29.3117H4.66687C3.43026 29.3079 2.24533 28.7928 1.3709 27.8788C0.496479 26.9648 0.00362743 25.7263 0 24.4338L0 4.92315C0.00362743 3.63059 0.496479 2.39206 1.3709 1.47808C2.24533 0.564104 3.43026 0.0489575 4.66687 0.045166H23.3331C24.5697 0.0489575 25.7547 0.564104 26.6291 1.47808C27.5035 2.39206 27.9964 3.63059 28 4.92315ZM21.1281 18.7196C21.1281 17.3105 20.7125 14.9117 18.0625 14.3198V14.2721C19.4944 13.6332 20.3962 12.4266 20.3962 10.6373C20.3962 10.18 20.5212 6.40542 15.5463 6.40542H7.60875V23.4774C15.6231 23.4774 16.3506 23.5871 17.8337 23.1044C18.7219 22.8156 21.1281 21.9298 21.1281 18.7196Z" fill="#591A70"/>
</svg>
